<?xml version="1.0" standalone="no"?>
<!DOCTYPE svg PUBLIC "-//W3C//DTD SVG 20010904//EN"
 "http://www.w3.org/TR/2001/REC-SVG-20010904/DTD/svg10.dtd">
<svg version="1.0" xmlns="http://www.w3.org/2000/svg"
 width="2000.000000pt" height="2000.000000pt" viewBox="0 0 2000.000000 2000.000000"
 preserveAspectRatio="xMidYMid meet">

<g transform="translate(0.000000,2000.000000) scale(0.100000,-0.100000)"
fill="#000000" stroke="none">
<path d="M3252 12508 c36 -51 91 -131 123 -178 290 -423 289 -422 297 -400 4
11 13 71 18 133 11 112 9 191 -12 364 l-10 93 -37 10 c-98 26 -363 70 -422 70
-18 0 -11 -14 43 -92z"/>
<path d="M3723 12482 c4 -15 12 -89 18 -165 13 -143 4 -312 -22 -424 l-11 -48
161 -235 c89 -129 166 -236 171 -238 26 -9 136 246 171 397 23 99 36 374 22
486 l-8 69 -93 40 c-50 21 -94 37 -96 35 -2 -2 0 -24 4 -49 5 -25 9 -74 9
-110 l0 -65 -33 75 c-64 145 -94 197 -118 204 -13 3 -58 17 -102 30 l-78 25 5
-27z"/>
<path d="M4285 12072 c0 -174 -4 -234 -19 -302 -33 -151 -104 -327 -169 -420
l-25 -35 66 -95 c36 -52 97 -140 135 -195 38 -55 77 -112 86 -127 9 -16 19
-28 22 -28 12 0 101 150 155 260 113 231 204 544 230 791 l6 65 -38 31 c-44
33 -161 113 -167 113 -2 0 -7 -51 -10 -112 -3 -62 -10 -124 -15 -138 -8 -23
-11 -19 -21 35 -7 33 -26 112 -43 176 l-30 116 -78 42 c-42 22 -79 41 -81 41
-2 0 -4 -98 -4 -218z"/>
<path d="M4806 11832 c-49 -329 -167 -660 -323 -910 -36 -56 -63 -107 -61
-112 7 -20 334 -490 341 -490 4 0 35 42 68 93 81 124 228 425 278 570 l41 118
0 268 0 267 -43 42 -43 43 -22 -112 c-12 -61 -28 -122 -35 -136 -12 -22 -15
-11 -25 109 -7 73 -17 161 -23 195 -10 59 -14 65 -73 117 l-63 55 -17 -117z"/>
<path d="M5131 10883 c-30 -86 -194 -406 -261 -507 -52 -80 -69 -114 -63 -126
4 -9 41 -65 82 -123 l74 -107 94 0 93 0 0 450 c0 248 -1 450 -3 450 -2 0 -9
-17 -16 -37z"/>
<path d="M18518 9409 c-90 -128 -418 -619 -418 -625 0 -12 83 7 190 42 58 19
164 65 235 103 l130 68 -3 57 c-2 60 -40 247 -70 355 l-18 65 -46 -65z"/>
<path d="M18524 8871 c-147 -76 -250 -113 -384 -138 l-90 -18 -161 -238 c-88
-130 -158 -241 -155 -246 3 -5 52 -14 107 -21 113 -14 239 -8 359 16 168 34
456 150 479 192 6 11 11 62 11 111 l0 91 -37 -23 c-21 -13 -56 -33 -78 -44
-93 -47 -91 -38 13 73 l102 109 -5 60 c-10 108 -16 145 -23 144 -4 -1 -66 -32
-138 -68z"/>
<path d="M18580 8300 c-90 -46 -255 -103 -365 -125 -120 -25 -321 -31 -429
-12 -49 9 -93 14 -98 11 -11 -7 -287 -421 -290 -436 -4 -17 148 -45 323 -58
223 -17 479 6 734 67 61 14 113 31 117 37 8 12 58 215 58 234 0 6 -24 1 -60
-14 -62 -25 -189 -58 -196 -51 -3 2 22 21 53 42 32 21 97 66 144 101 l87 64 6
58 c4 31 10 72 13 90 7 42 -2 41 -97 -8z"/>
<path d="M18440 7689 c-329 -81 -773 -87 -1061 -14 -25 6 -33 -3 -150 -177
-67 -101 -145 -214 -171 -253 l-49 -70 41 -12 c175 -51 543 -81 793 -64 147
10 444 52 465 65 12 7 126 235 121 240 -3 3 -49 -4 -103 -15 -55 -11 -115 -19
-135 -17 -34 3 -30 6 79 61 203 103 226 120 248 180 35 93 35 97 15 96 -10 -1
-52 -9 -93 -20z"/>
<path d="M16897 7006 c-42 -63 -77 -117 -77 -119 0 -3 28 -15 63 -27 86 -32
247 -113 337 -170 41 -26 89 -51 105 -54 58 -12 409 -25 497 -19 l89 6 65 76
65 76 -120 5 c-116 5 -152 13 -114 23 10 3 52 15 93 27 41 11 114 35 162 52
l87 30 60 91 c33 50 59 92 58 93 -2 2 -54 -5 -118 -16 -353 -57 -784 -48
-1093 25 -34 8 -66 15 -71 15 -6 0 -45 -51 -88 -114z"/>
<path d="M17400 6560 c14 -12 57 -53 96 -91 l72 -69 60 6 c58 6 63 10 138 79
l78 72 -209 7 c-115 3 -220 9 -235 12 l-25 5 25 -21z"/>
</g>
</svg>
