<svg
   version="1.1"
   id="svg2"
   width="868.82666"
   height="702.06665"
   viewBox="0 0 868.82666 702.06665"
   sodipodi:docname="Logo ĐH Công Nghệ Thông Tin-UIT.eps"
   xmlns:inkscape="http://www.inkscape.org/namespaces/inkscape"
   xmlns:sodipodi="http://sodipodi.sourceforge.net/DTD/sodipodi-0.dtd"
   xmlns="http://www.w3.org/2000/svg"
   xmlns:svg="http://www.w3.org/2000/svg">
  <defs
     id="defs6" />
  <sodipodi:namedview
     id="namedview4"
     pagecolor="#ffffff"
     bordercolor="#000000"
     borderopacity="0.25"
     inkscape:showpageshadow="2"
     inkscape:pageopacity="0.0"
     inkscape:pagecheckerboard="0"
     inkscape:deskcolor="#d1d1d1" />
  <g
     id="g8"
     inkscape:groupmode="layer"
     inkscape:label="ink_ext_XXXXXX"
     transform="matrix(1.3333333,0,0,-1.3333333,0,702.06667)">
    <g
       id="g10"
       transform="scale(0.1)">
      <path
         d="m 3419.48,4328.32 c -699.8,-306.4 -1351.4,-736 -1875,-1295.3 -240,-257.5 -463.5,-533.3 -640.699,-838.4 -143.601,-251.9 -256.902,-534.4 -248.004,-829.1 3.301,-177.1 54.907,-354.7 154.403,-502 111.199,-164.801 282.5,-280.098 464.7,-353.899 223.9,-89.902 466,-133 707.1,-129.199 251.8,1 501.6,39.699 749.1,83.098 361.1,67.101 724.3,143.8 1062.8,290.199 -51.7,-10.5 -100,-33.5 -151.7,-44.399 -375.5,-110.3 -779.4,-121.601 -1160.5,-32.101 -550.3,126.203 -1049.1,464.801 -1366.1,932.401 177.7,3.9 355.7,0.3 533.4,1.8 295.2,-306.9 696.6,-512.5 1120.5,-560.9 -32.1,29.5 -68.9,53.1 -103.4,79.4 -220.1,162.8 -440.2,325.5 -660.4,488.1 -110.7,83.6 -224.9,162.8 -333.4,249 229.5,0.6 459.2,0.9 688.7,-0.1 213,-279.8 424.6,-560.9 640.1,-838.7 213.2,279.8 426,560 639.8,839.4 229.2,-0.7 458.4,0.8 687.6,-0.8 -24,-22.3 -52.1,-39.5 -77.9,-59.5 -316,-233.6 -632.1,-467.1 -948.1,-700.7 -23.7,-17.5 -48.8,-33.6 -69,-55.3 422.2,47.6 821.3,253.6 1116.2,558 143.9,4.3 288.6,1.3 432.9,1.4 212.4,288.4 350.5,630.9 399.9,985.5 57.1,404.6 0.3,824.7 -164.8,1198.7 -149.1,341.8 -388.7,642.4 -685.2,868.2 -310.4,-93.8 -616.1,-203.9 -913,-334.8 z m 2045.8,937.2 h 83.7 c 66.8,-12.1 133.1,-33.8 188.3,-74.5 103.9,-73.2 165.7,-199.5 163.8,-326.2 93.4,-41.7 183.6,-91.6 263.5,-155.9 127.2,-100.2 227.5,-234.6 284.6,-386.3 60.5,-157.7 76.1,-329.7 62.4,-497.1 -17.3,-194.4 -71,-384.1 -144.7,-564.4 -148.1,-355.8 -365,-679.8 -613.9,-972.6 55.4,95.2 123.5,182.3 180.2,276.8 133.7,219.2 264.3,442.6 353.8,684.2 62.8,171.2 105.1,352.4 102.5,535.6 2.5,195.1 -41.3,394.7 -146.8,560.6 -94.5,145.9 -236.8,257 -394.1,328.4 -20.9,-33.2 -43.7,-65.7 -72.8,-92.3 -117.1,-111.6 -305.3,-134.4 -447.6,-59.3 -106.1,53.2 -182,157.4 -206.4,273 -233,-10.4 -462.6,-56.4 -690.7,-102.1 83.3,-72.8 167.9,-144.9 242.2,-227.3 250.4,-268 434.1,-597.4 531.4,-951 114.7,-412.5 109.7,-857.3 -14.2,-1267.1 -109.1,-364.8 -310.9,-701.5 -582.2,-968.7 -172.2,-170.7 -371.4,-316 -593.2,-415.101 1,-4.199 3,-12.5 3.9,-16.598 -492.7,-292 -1019.4,-530.5 -1571.3,-686.199 C 2049.78,51.2188 1635.88,-19.3789 1221.88,4.71875 963.184,20.8203 700.777,76.5195 475.082,208.719 302.98,308.52 158.98,460.422 81.2813,644.719 -12.5195,864.422 -18.1211,1112.92 28.8789,1344.62 c 45.1016,231.2 134.6011,451.6 244.5001,659.1 166.402,310.6 379.703,594 614.898,855.5 458.803,506.3 1002.303,932 1587.503,1282.9 562.8,333.7 1168.6,602.7 1806.8,754.1 279.5,65.1 565.6,106.3 852.9,106.1 22.4,51.3 49,101.7 88.8,141.7 63.1,67.4 150.9,106.4 241,121.5"
         style="fill:#4b63b7;fill-opacity:1;fill-rule:nonzero;stroke:none"
         id="path12" />
      <path
         d="m 1629.88,4737.82 c 462.2,348.1 1060.4,511.9 1635.1,440.1 2.4,-1.8 7.3,-5.2 9.7,-7 -691.5,-274.9 -1339.4,-655.7 -1926,-1112.9 -181.9,-142.4 -356.797,-293.6 -525.598,-451.5 142.898,448.7 428.798,850.4 806.798,1131.3"
         style="fill:#4b63b7;fill-opacity:1;fill-rule:nonzero;stroke:none"
         id="path14" />
      <path
         d="m 2391.98,4654.32 c 339.9,191.7 693.9,358.2 1059.2,495.7 46.5,-11.3 92.9,-23.9 140.2,-31.9 -12.4,-19 -39.8,-17.5 -58.4,-27.2 -653.8,-238 -1270.7,-573.2 -1835.2,-979.1 -284.3,-205.6 -555.8,-429.3 -807.6,-673.6 -48.5,-45.6 -93.102,-95.1 -142.399,-139.9 7.801,51.4 10.699,108.3 37.102,153.5 478.597,470.5 1023.597,871.9 1607.097,1202.5"
         style="fill:#4b63b7;fill-opacity:1;fill-rule:nonzero;stroke:none"
         id="path16" />
      <path
         d="m 2566.18,4560.32 c 363.3,198.6 742.8,368.3 1135.3,500.5 51.6,25.6 100.7,-20 151.1,-29.5 -4.9,-18.8 -28.6,-16.4 -43.1,-23.3 -393.6,-124.4 -773.2,-290.7 -1137.3,-484.6 -588.8,-315.4 -1138.8,-705.3 -1624.4,-1164.5 -115.1,-109.6 -226.702,-223 -332.8,-341.4 3.598,45.1 3.598,90.3 11,135 531.6,565.2 1161.3,1034.3 1840.2,1407.8"
         style="fill:#4b63b7;fill-opacity:1;fill-rule:nonzero;stroke:none"
         id="path18" />
      <path
         d="m 3111.48,3323.32 c 120.6,72.8 246.5,138 378.1,188.3 246.2,-229.8 419.7,-537.6 490.9,-866.7 -67.2,-5.8 -133.8,-17.4 -200,-30.1 -177.3,274.5 -404.4,516.4 -669,708.5"
         style="fill:#4b63b7;fill-opacity:1;fill-rule:nonzero;stroke:none"
         id="path20" />
      <path
         d="m 2018.18,2645.52 c 74.6,329.1 246.6,635.8 492.3,867.5 130.7,-52.9 256.9,-116.3 377.7,-188.9 -262.2,-194.1 -492.1,-432.9 -667,-708.9 -67.4,11.8 -134.8,23.9 -203,30.3"
         style="fill:#4b63b7;fill-opacity:1;fill-rule:nonzero;stroke:none"
         id="path22" />
      <path
         d="m 2350.68,2586.92 c 169.9,261.3 393.8,486.9 650,664 248.4,-172.8 465.6,-390.7 635.2,-641.5 3.1,-5.7 9.4,-17.2 12.5,-23 -223.6,-49.7 -441.2,-127.3 -647.2,-227.3 -207.9,98.8 -425.6,178.1 -650.5,227.8"
         style="fill:#4b63b7;fill-opacity:1;fill-rule:nonzero;stroke:none"
         id="path24" />
      <path
         d="m 1477.58,2541.52 c 131.6,11.4 263.7,3.4 395.3,-3.5 -23,-181.5 -26,-366.6 3.9,-547.4 -114.8,0.7 -229.5,-1 -344.3,0.8 -117.8,154.7 -143.7,375.7 -54.9,550.1"
         style="fill:#4b63b7;fill-opacity:1;fill-rule:nonzero;stroke:none"
         id="path26" />
      <path
         d="m 4127.08,2537.72 c 55,3.5 110.1,6.1 165.2,7.9 76.9,6.8 153.8,-2.7 230.8,-2.5 70.8,-145 71.2,-321.4 -2.8,-465.1 -17.4,-29.8 -31,-65.2 -58.3,-86.9 -112.2,-1.5 -224.4,0.4 -336.6,-0.8 25.7,181.3 26.9,365.9 1.7,547.4"
         style="fill:#4b63b7;fill-opacity:1;fill-rule:nonzero;stroke:none"
         id="path28" />
      <path
         d="m 1995.28,2524.62 c 52.8,-4 105.1,-13.2 157.4,-21.2 -53.1,-101.5 -106.4,-203.2 -147.5,-310.2 -6.3,-17.1 -13.7,-33.6 -22.3,-49.6 -11.7,126.8 -4.4,254.9 12.4,381"
         style="fill:#4b63b7;fill-opacity:1;fill-rule:nonzero;stroke:none"
         id="path30" />
      <path
         d="m 3846.18,2500.32 c 51.7,14.3 105.7,19.6 159.1,23.1 17,-125.9 22.1,-253.3 14.1,-380.2 -2.7,4.2 -8.1,12.7 -10.8,17 -46.4,116.8 -97.9,232.1 -162.4,340.1"
         style="fill:#4b63b7;fill-opacity:1;fill-rule:nonzero;stroke:none"
         id="path32" />
      <path
         d="m 2281.48,2478.72 c 197.2,-44.2 389.7,-107.8 575.6,-187 -16.7,-18.6 -40.8,-27.4 -61.7,-40 -128.9,-74.4 -252.8,-157.5 -369.7,-249.7 -9.2,-8 -20.4,-13.6 -32.9,-11.8 -110.2,0.2 -220.3,0.7 -330.4,-0.2 53.7,170.6 129.3,334 219.1,488.7"
         style="fill:#4b63b7;fill-opacity:1;fill-rule:nonzero;stroke:none"
         id="path34" />
      <path
         d="m 3141.38,2290.62 c 186.8,79.6 380,144.7 578.6,187.5 87.6,-155.3 164.8,-317.3 217.5,-487.9 -115.3,0.4 -230.7,0.8 -346,-0.2 -110.6,85.7 -225.1,166.6 -345.7,237.8 -34.1,22.1 -71.9,38.3 -104.4,62.8"
         style="fill:#4b63b7;fill-opacity:1;fill-rule:nonzero;stroke:none"
         id="path36" />
    </g>
  </g>
</svg>